<svg width="16" height="17" viewBox="0 0 16 17" fill="none" xmlns="http://www.w3.org/2000/svg">
<path d="M10.875 7.3125C10.875 7.6648 10.7705 8.00918 10.5748 8.30211C10.3791 8.59503 10.1009 8.82334 9.7754 8.95816C9.44992 9.09298 9.09177 9.12825 8.74624 9.05952C8.40072 8.99079 8.08333 8.82115 7.83422 8.57203C7.5851 8.32292 7.41546 8.00553 7.34673 7.66C7.278 7.31448 7.31327 6.95633 7.44809 6.63085C7.58291 6.30536 7.81122 6.02717 8.10414 5.83144C8.39707 5.63572 8.74145 5.53125 9.09375 5.53125C9.56557 5.5332 10.0175 5.7215 10.3511 6.05512C10.6848 6.38875 10.873 6.84068 10.875 7.3125ZM15.625 1.96875V15.0312C15.625 15.3462 15.4999 15.6482 15.2772 15.8709C15.0545 16.0936 14.7524 16.2188 14.4375 16.2188H3.75C3.43506 16.2188 3.13301 16.0936 2.91031 15.8709C2.68761 15.6482 2.5625 15.3462 2.5625 15.0312V13.5469H1.375C1.21753 13.5469 1.06651 13.4843 0.955155 13.373C0.843806 13.2616 0.78125 13.1106 0.78125 12.9531C0.78125 12.7957 0.843806 12.6446 0.955155 12.5333C1.06651 12.4219 1.21753 12.3594 1.375 12.3594H2.5625V10.5781H1.375C1.21753 10.5781 1.06651 10.5156 0.955155 10.4042C0.843806 10.2929 0.78125 10.1418 0.78125 9.98438C0.78125 9.8269 0.843806 9.67588 0.955155 9.56453C1.06651 9.45318 1.21753 9.39062 1.375 9.39062H2.5625V7.60938H1.375C1.21753 7.60938 1.06651 7.54682 0.955155 7.43547C0.843806 7.32412 0.78125 7.1731 0.78125 7.01562C0.78125 6.85815 0.843806 6.70713 0.955155 6.59578C1.06651 6.48443 1.21753 6.42188 1.375 6.42188H2.5625V4.64062H1.375C1.21753 4.64062 1.06651 4.57807 0.955155 4.46672C0.843806 4.35537 0.78125 4.20435 0.78125 4.04688C0.78125 3.8894 0.843806 3.73838 0.955155 3.62703C1.06651 3.51568 1.21753 3.45312 1.375 3.45312H2.5625V1.96875C2.5625 1.65381 2.68761 1.35176 2.91031 1.12906C3.13301 0.906361 3.43506 0.78125 3.75 0.78125H14.4375C14.7524 0.78125 15.0545 0.906361 15.2772 1.12906C15.4999 1.35176 15.625 1.65381 15.625 1.96875ZM13.1312 11.1125C12.6058 10.4071 11.9046 9.85185 11.0977 9.50195C11.5392 9.09803 11.8483 8.57011 11.9845 7.98742C12.1208 7.40474 12.0777 6.79448 11.8611 6.23668C11.6444 5.67887 11.2642 5.19957 10.7704 4.8616C10.2766 4.52364 9.69215 4.34281 9.09375 4.34281C8.49535 4.34281 7.91091 4.52364 7.41708 4.8616C6.92325 5.19957 6.54308 5.67887 6.32642 6.23668C6.10976 6.79448 6.06672 7.40474 6.20296 7.98742C6.33919 8.57011 6.64833 9.09803 7.08984 9.50195C6.28287 9.85185 5.58171 10.4071 5.05625 11.1125C4.96177 11.2385 4.9212 11.3968 4.94347 11.5527C4.96574 11.7086 5.04902 11.8493 5.175 11.9437C5.27698 12.0223 5.40251 12.0642 5.53125 12.0625C5.62343 12.0625 5.71434 12.041 5.79678 11.9998C5.87923 11.9586 5.95094 11.8987 6.00625 11.825C6.36574 11.3457 6.83189 10.9566 7.36779 10.6887C7.90368 10.4207 8.4946 10.2812 9.09375 10.2812C9.6929 10.2812 10.2838 10.4207 10.8197 10.6887C11.3556 10.9566 11.8218 11.3457 12.1813 11.825C12.2769 11.9493 12.4174 12.0314 12.5727 12.0536C12.728 12.0757 12.8858 12.0363 13.0125 11.9437C13.0749 11.897 13.1274 11.8384 13.1672 11.7713C13.2069 11.7042 13.233 11.6299 13.244 11.5527C13.2551 11.4755 13.2508 11.3969 13.2314 11.3214C13.2121 11.2459 13.178 11.1749 13.1312 11.1125Z" fill="#001C8E"/>
</svg>
