<svg width="22" height="22" viewBox="0 0 22 22" fill="none" xmlns="http://www.w3.org/2000/svg">
<path fill-rule="evenodd" clip-rule="evenodd" d="M11 22C4.92487 22 0 17.0751 0 11C0 4.92487 4.92487 0 11 0C17.0751 0 22 4.92487 22 11C22 17.0751 17.0751 22 11 22ZM18.3996 16.1246C19.4087 14.6703 20 12.9042 20 11C20 6.02946 15.9706 2.00002 11 2.00002C6.02946 2.00002 2.00002 6.02946 2.00002 11C2.00002 12.9042 2.59138 14.6703 3.60045 16.1246C4.72257 14.6423 7.355 14.0036 10.968 13.9999C8.74407 13.985 6.99997 12.411 6.99997 9C6.99997 6.75576 8.57907 5 11 5C13.4142 5 15 6.92158 15 9.2C15 12.4637 13.2353 13.9852 11.0322 13.9999C14.6451 14.0037 17.2775 14.6424 18.3996 16.1246ZM16.9647 17.7398C16.6722 16.6873 14.5695 15.9999 11 15.9999C7.4305 15.9999 5.32787 16.6873 5.03527 17.7397C6.62326 19.1462 8.71193 20 11 20C13.2881 20 15.3767 19.1462 16.9647 17.7398ZM8.99999 9C8.99999 11.2693 9.8182 12 11 12C12.1777 12 13 11.2984 13 9.2C13 7.95041 12.2156 7 11 7C9.73373 7 8.99999 7.81582 8.99999 9Z" fill="#97ADB6"/>
</svg>
