<svg width="22" height="22" viewBox="0 0 22 22" fill="none" xmlns="http://www.w3.org/2000/svg">
<path fill-rule="evenodd" clip-rule="evenodd" d="M5.36893 4.4C5.69231 1.99671 8.09402 0 10.832 0C13.5699 0 15.9716 1.99671 16.295 4.4H19.4637C20.6787 4.4 21.6637 5.38497 21.6637 6.6C21.6637 6.7041 21.6563 6.80807 21.6416 6.91113L19.7558 20.1111C19.601 21.195 18.6728 22 17.5779 22H4.086C2.99116 22 2.06294 21.195 1.90811 20.1111L0.0223913 6.91113C-0.149439 5.70831 0.686338 4.59394 1.88915 4.42211C1.99221 4.40739 2.09618 4.4 2.20028 4.4H5.36893ZM14.0526 4.39995C13.7182 3.23184 12.3697 2.19995 10.8319 2.19995C9.29406 2.19995 7.94561 3.23184 7.61122 4.39995H14.0526ZM2.20023 6.59998H5.33192V8.79998H7.53192V6.59998H14.1319V8.79998H16.3319V6.59998H19.4636L17.5779 19.8H4.08594L2.20023 6.59998Z" fill="#97ADB6"/>
</svg>
