<svg width="38" height="38" viewBox="0 0 38 38" fill="none" xmlns="http://www.w3.org/2000/svg">
<path d="M26.125 13.6641C25.4758 13.6641 24.9375 13.1257 24.9375 12.4766V10.2916C24.9375 8.62907 24.225 7.01407 22.99 5.8899C21.7392 4.7499 20.1242 4.2274 18.4142 4.38574C15.5642 4.6549 13.0625 7.56824 13.0625 10.6082V12.1441C13.0625 12.7932 12.5242 13.3316 11.875 13.3316C11.2258 13.3316 10.6875 12.7932 10.6875 12.1441V10.5924C10.6875 6.33324 14.1233 2.40657 18.1925 2.01074C20.5675 1.78907 22.8475 2.53324 24.5892 4.1324C26.315 5.6999 27.3125 7.94824 27.3125 10.2916V12.4766C27.3125 13.1257 26.7742 13.6641 26.125 13.6641Z" fill="white"/>
<path d="M23.7502 36.0209H14.2502C6.9352 36.0209 5.57353 32.6167 5.2252 29.3076L4.0377 19.8234C3.86353 18.1134 3.8002 15.6592 5.4627 13.8226C6.8877 12.2392 9.24687 11.4792 12.6669 11.4792H25.3335C28.7694 11.4792 31.1285 12.2551 32.5377 13.8226C34.1844 15.6592 34.1369 18.1134 33.9627 19.7917L32.7752 29.3076C32.4269 32.6167 31.0652 36.0209 23.7502 36.0209ZM12.6669 13.8542C9.99103 13.8542 8.15437 14.3767 7.2202 15.4217C6.44437 16.2767 6.19103 17.5909 6.39687 19.5542L7.58437 29.0384C7.85353 31.5717 8.5502 33.6617 14.2502 33.6617H23.7502C29.4502 33.6617 30.1469 31.5876 30.416 29.0701L31.6035 19.5542C31.8094 17.6226 31.556 16.3084 30.7802 15.4376C29.846 14.3767 28.0094 13.8542 25.3335 13.8542H12.6669Z" fill="white"/>
<path d="M24.4151 20.8207C23.5284 20.8207 22.8159 20.1082 22.8159 19.2374C22.8159 18.3666 23.5284 17.6541 24.3993 17.6541C25.2701 17.6541 25.9826 18.3666 25.9826 19.2374C25.9826 20.1082 25.2859 20.8207 24.4151 20.8207Z" fill="white"/>
<path d="M13.3316 20.8207C12.4449 20.8207 11.7324 20.1082 11.7324 19.2374C11.7324 18.3666 12.4449 17.6541 13.3158 17.6541C14.1866 17.6541 14.8991 18.3666 14.8991 19.2374C14.8991 20.1082 14.2024 20.8207 13.3316 20.8207Z" fill="white"/>
</svg>
