<svg width="18" height="15" viewBox="0 0 18 15" fill="none" xmlns="http://www.w3.org/2000/svg">
<path d="M6.2738 5.5L8.40005 4H11.019L10.2 1.75H8.25005V0.25H11.25L12.069 2.5H15V4.75H12.8881L13.98 7.7515C14.8086 7.77784 15.5985 8.10821 16.1991 8.67962C16.7997 9.25102 17.169 10.0235 17.2366 10.8497C17.3041 11.6759 17.0653 12.4981 16.5655 13.1595C16.0657 13.8209 15.34 14.2752 14.5267 14.4359C13.7134 14.5965 12.8694 14.4521 12.1558 14.0304C11.4421 13.6086 10.9086 12.939 10.657 12.1491C10.4054 11.3592 10.4533 10.5043 10.7916 9.74749C11.1299 8.99067 11.7349 8.38484 12.4913 8.0455L11.5643 5.5H10.854L9.66755 9.9025L7.4738 10.7042C7.55298 11.3359 7.45188 11.9771 7.18217 12.5538C6.91247 13.1305 6.48517 13.6191 5.94959 13.9633C5.41402 14.3074 4.79203 14.4931 4.15543 14.4989C3.51883 14.5046 2.89359 14.3302 2.3519 13.9957C1.81021 13.6613 1.37417 13.1804 1.09411 12.6087C0.814053 12.037 0.701408 11.3977 0.769181 10.7647C0.836954 10.1317 1.08238 9.53077 1.47713 9.0313C1.87187 8.53183 2.39983 8.1542 3.00005 7.942V7H1.50005V5.5H6.2738ZM4.12505 13C4.62233 13 5.09924 12.8025 5.45087 12.4508C5.8025 12.0992 6.00005 11.6223 6.00005 11.125C6.00005 10.6277 5.8025 10.1508 5.45087 9.79918C5.09924 9.44754 4.62233 9.25 4.12505 9.25C3.62777 9.25 3.15085 9.44754 2.79922 9.79918C2.44759 10.1508 2.25005 10.6277 2.25005 11.125C2.25005 11.6223 2.44759 12.0992 2.79922 12.4508C3.15085 12.8025 3.62777 13 4.12505 13ZM13.875 13C14.3723 13 14.8492 12.8025 15.2009 12.4508C15.5525 12.0992 15.75 11.6223 15.75 11.125C15.75 10.6277 15.5525 10.1508 15.2009 9.79918C14.8492 9.44754 14.3723 9.25 13.875 9.25C13.3778 9.25 12.9009 9.44754 12.5492 9.79918C12.1976 10.1508 12 10.6277 12 11.125C12 11.6223 12.1976 12.0992 12.5492 12.4508C12.9009 12.8025 13.3778 13 13.875 13Z" fill="#001C8E"/>
</svg>
