<svg width="22" height="20" viewBox="0 0 22 20" fill="none" xmlns="http://www.w3.org/2000/svg">
<path d="M1.75 3.5H20.75L17.75 13.5H4.75L1.75 3.5ZM1.75 3.5L1 1M8.742 8.5H10.742M10.742 8.5H12.742M10.742 8.5V6.5M10.742 8.5V10.5M9.75 17C9.75 17.3978 9.59196 17.7794 9.31066 18.0607C9.02936 18.342 8.64782 18.5 8.25 18.5C7.85218 18.5 7.47064 18.342 7.18934 18.0607C6.90804 17.7794 6.75 17.3978 6.75 17H9.75ZM15.75 17C15.75 17.3978 15.592 17.7794 15.3107 18.0607C15.0294 18.342 14.6478 18.5 14.25 18.5C13.8522 18.5 13.4706 18.342 13.1893 18.0607C12.908 17.7794 12.75 17.3978 12.75 17H15.75Z" stroke="#292D32" stroke-width="1.5" stroke-linecap="round" stroke-linejoin="round"/>
</svg>
