<svg width="25" height="17" viewBox="0 0 25 17" fill="none" xmlns="http://www.w3.org/2000/svg">
<path d="M11.4583 5C11.4583 7.21 9.59375 9 7.29167 9C4.98958 9 3.125 7.21 3.125 5C3.125 2.79 4.98958 1 7.29167 1C9.59375 1 11.4583 2.79 11.4583 5ZM11.4583 11.72V17H0V15C0 12.79 3.26042 11 7.29167 11C8.85417 11 10.2812 11.27 11.4583 11.72ZM25 17H13.5417V0H25V17ZM16.6667 8.5C16.6667 7.83696 16.941 7.20107 17.4294 6.73223C17.9178 6.26339 18.5802 6 19.2708 6C19.9615 6 20.6239 6.26339 21.1123 6.73223C21.6006 7.20107 21.875 7.83696 21.875 8.5C21.875 9.16304 21.6006 9.79893 21.1123 10.2678C20.6239 10.7366 19.9615 11 19.2708 11C18.5802 11 17.9178 10.7366 17.4294 10.2678C16.941 9.79893 16.6667 9.16304 16.6667 8.5ZM22.9167 4C22.3641 4 21.8342 3.78929 21.4435 3.41421C21.0528 3.03914 20.8333 2.53043 20.8333 2H17.7083C17.7083 3.11 16.7812 4 15.625 4V13C16.1775 13 16.7074 13.2107 17.0981 13.5858C17.4888 13.9609 17.7083 14.4696 17.7083 15H20.8333C20.8333 13.9 21.7708 13 22.9167 13V4Z" fill="#1D3C6A"/>
</svg>
