<svg width="24" height="20" viewBox="0 0 24 20" fill="none" xmlns="http://www.w3.org/2000/svg">
<path fill-rule="evenodd" clip-rule="evenodd" d="M9.66668 0.666656H14.3333C18.7328 0.666656 20.9332 0.666656 22.2993 2.03399C23.284 3.01749 23.5593 4.43382 23.6363 6.79166H0.363677C0.440677 4.43382 0.71601 3.01749 1.70068 2.03399C3.06684 0.666656 5.26718 0.666656 9.66668 0.666656ZM14.3333 19.3333H9.66668C5.26718 19.3333 3.06684 19.3333 1.70068 17.966C0.333343 16.5998 0.333344 14.3995 0.333344 9.99999C0.333344 9.48432 0.333344 8.99899 0.335677 8.54166H23.6643C23.6667 8.99899 23.6667 9.48432 23.6667 9.99999C23.6667 14.3995 23.6667 16.5998 22.2993 17.966C20.9332 19.3333 18.7328 19.3333 14.3333 19.3333ZM5.00001 13.7917C4.76795 13.7917 4.54539 13.8838 4.38129 14.0479C4.2172 14.212 4.12501 14.4346 4.12501 14.6667C4.12501 14.8987 4.2172 15.1213 4.38129 15.2854C4.54539 15.4495 4.76795 15.5417 5.00001 15.5417H9.66668C9.89874 15.5417 10.1213 15.4495 10.2854 15.2854C10.4495 15.1213 10.5417 14.8987 10.5417 14.6667C10.5417 14.4346 10.4495 14.212 10.2854 14.0479C10.1213 13.8838 9.89874 13.7917 9.66668 13.7917H5.00001ZM12.5833 13.7917C12.3513 13.7917 12.1287 13.8838 11.9646 14.0479C11.8005 14.212 11.7083 14.4346 11.7083 14.6667C11.7083 14.8987 11.8005 15.1213 11.9646 15.2854C12.1287 15.4495 12.3513 15.5417 12.5833 15.5417H14.3333C14.5654 15.5417 14.788 15.4495 14.9521 15.2854C15.1162 15.1213 15.2083 14.8987 15.2083 14.6667C15.2083 14.4346 15.1162 14.212 14.9521 14.0479C14.788 13.8838 14.5654 13.7917 14.3333 13.7917H12.5833Z" fill="#001C8E"/>
</svg>
