<svg width="30" height="30" viewBox="0 0 30 30" fill="none" xmlns="http://www.w3.org/2000/svg">
<path fill-rule="evenodd" clip-rule="evenodd" d="M11.8338 2.24719C12.2324 1.80199 12.7204 1.44587 13.266 1.20205C13.8116 0.958235 14.4024 0.832214 15 0.832214C15.5976 0.832214 16.1885 0.958235 16.734 1.20205C17.2796 1.44587 17.7676 1.80199 18.1663 2.24719L19.1579 3.35502C19.2997 3.51356 19.4752 3.63816 19.6717 3.71958C19.8681 3.801 20.0804 3.83715 20.2927 3.82536L21.7802 3.74319C22.3767 3.71043 22.9734 3.80379 23.5313 4.01717C24.0893 4.23056 24.596 4.55918 25.0185 4.98159C25.4409 5.40401 25.7695 5.91073 25.9829 6.4687C26.1963 7.02668 26.2896 7.62337 26.2569 8.21986L26.1747 9.70736C26.1631 9.91944 26.1994 10.1314 26.2808 10.3276C26.3622 10.5238 26.4867 10.6991 26.645 10.8407L27.7543 11.8324C28.1997 12.231 28.556 12.7191 28.8 13.2648C29.0439 13.8105 29.17 14.4016 29.17 14.9993C29.17 15.5971 29.0439 16.1881 28.8 16.7338C28.556 17.2795 28.1997 17.7676 27.7543 18.1663L26.645 19.1579C26.4865 19.2997 26.3619 19.4752 26.2805 19.6717C26.1991 19.8681 26.1629 20.0804 26.1747 20.2927L26.2569 21.7802C26.2896 22.3767 26.1963 22.9734 25.9829 23.5313C25.7695 24.0893 25.4409 24.596 25.0185 25.0185C24.596 25.4409 24.0893 25.7695 23.5313 25.9829C22.9734 26.1963 22.3767 26.2896 21.7802 26.2569L20.2927 26.1747C20.0806 26.1631 19.8686 26.1994 19.6725 26.2808C19.4763 26.3622 19.3009 26.4867 19.1594 26.645L18.1677 27.7543C17.7691 28.1997 17.2809 28.556 16.7352 28.8C16.1895 29.0439 15.5985 29.17 15.0007 29.17C14.403 29.17 13.8119 29.0439 13.2662 28.8C12.7205 28.556 12.2324 28.1997 11.8338 27.7543L10.8421 26.645C10.7004 26.4865 10.5248 26.3619 10.3284 26.2805C10.1319 26.1991 9.91967 26.1629 9.70736 26.1747L8.21986 26.2569C7.62337 26.2896 7.02668 26.1963 6.4687 25.9829C5.91073 25.7695 5.404 25.4409 4.98159 25.0185C4.55917 24.596 4.23056 24.0893 4.01717 23.5313C3.80379 22.9734 3.71043 22.3767 3.74319 21.7802L3.82536 20.2927C3.83693 20.0806 3.80067 19.8686 3.71926 19.6725C3.63785 19.4763 3.51336 19.3009 3.35502 19.1594L2.24719 18.1677C1.80176 17.7691 1.44543 17.2809 1.20147 16.7352C0.957517 16.1895 0.831421 15.5985 0.831421 15.0007C0.831421 14.403 0.957517 13.8119 1.20147 13.2662C1.44543 12.7205 1.80176 12.2324 2.24719 11.8338L3.35502 10.8421C3.51356 10.7004 3.63815 10.5248 3.71957 10.3284C3.80099 10.1319 3.83715 9.91967 3.82536 9.70736L3.74319 8.21986C3.71043 7.62337 3.80379 7.02668 4.01717 6.4687C4.23056 5.91073 4.55917 5.40401 4.98159 4.98159C5.404 4.55918 5.91073 4.23056 6.4687 4.01717C7.02668 3.80379 7.62337 3.71043 8.21986 3.74319L9.70736 3.82536C9.91944 3.83693 10.1314 3.80067 10.3276 3.71926C10.5238 3.63785 10.6991 3.51337 10.8407 3.35502L11.8324 2.24719H11.8338ZM20.2516 9.74844C20.5172 10.0141 20.6664 10.3744 20.6664 10.75C20.6664 11.1257 20.5172 11.4859 20.2516 11.7516L11.7516 20.2516C11.4844 20.5097 11.1266 20.6525 10.7551 20.6492C10.3837 20.646 10.0284 20.497 9.7657 20.2344C9.50303 19.9717 9.35405 19.6164 9.35082 19.2449C9.34759 18.8735 9.49038 18.5156 9.74844 18.2484L18.2484 9.74844C18.5141 9.48286 18.8744 9.33366 19.25 9.33366C19.6257 9.33366 19.9859 9.48286 20.2516 9.74844ZM11.4584 9.33336C10.8948 9.33336 10.3543 9.55724 9.95575 9.95576C9.55724 10.3543 9.33336 10.8948 9.33336 11.4584V11.4725C9.33336 12.0361 9.55724 12.5766 9.95575 12.9751C10.3543 13.3736 10.8948 13.5975 11.4584 13.5975H11.4725C12.0361 13.5975 12.5766 13.3736 12.9751 12.9751C13.3736 12.5766 13.5975 12.0361 13.5975 11.4725V11.4584C13.5975 10.8948 13.3736 10.3543 12.9751 9.95576C12.5766 9.55724 12.0361 9.33336 11.4725 9.33336H11.4584ZM18.5417 16.4167C17.9781 16.4167 17.4376 16.6406 17.0391 17.0391C16.6406 17.4376 16.4167 17.9781 16.4167 18.5417V18.5559C16.4167 19.1194 16.6406 19.6599 17.0391 20.0585C17.4376 20.457 17.9781 20.6809 18.5417 20.6809H18.5559C19.1194 20.6809 19.6599 20.457 20.0585 20.0585C20.457 19.6599 20.6809 19.1194 20.6809 18.5559V18.5417C20.6809 17.9781 20.457 17.4376 20.0585 17.0391C19.6599 16.6406 19.1194 16.4167 18.5559 16.4167H18.5417Z" fill="#001C8E"/>
</svg>
