<svg width="22" height="20" viewBox="0 0 22 20" fill="none" xmlns="http://www.w3.org/2000/svg">
<path d="M19.0402 4.82L13.2802 0.789999C11.7102 -0.310001 9.30023 -0.250001 7.79023 0.919999L2.78023 4.83C1.78023 5.61 0.990234 7.21 0.990234 8.47V15.37C0.990234 17.92 3.06023 20 5.61023 20H16.3902C18.9402 20 21.0102 17.93 21.0102 15.38V8.6C21.0102 7.25 20.1402 5.59 19.0402 4.82ZM11.7502 16C11.7502 16.41 11.4102 16.75 11.0002 16.75C10.5902 16.75 10.2502 16.41 10.2502 16V13C10.2502 12.59 10.5902 12.25 11.0002 12.25C11.4102 12.25 11.7502 12.59 11.7502 13V16Z" fill="#001C8E"/>
</svg>
