<svg width="30" height="30" viewBox="0 0 30 30" fill="none" xmlns="http://www.w3.org/2000/svg">
<path d="M15.0248 25.6625C12.1123 25.6625 9.19984 25.2 6.43734 24.275C5.38734 23.9125 4.58734 23.175 4.23734 22.2125C3.87484 21.25 3.99984 20.1875 4.57484 19.2375L6.01234 16.85C6.31234 16.35 6.58734 15.35 6.58734 14.7625V11.15C6.58734 6.50002 10.3748 2.71252 15.0248 2.71252C19.6748 2.71252 23.4623 6.50002 23.4623 11.15V14.7625C23.4623 15.3375 23.7373 16.35 24.0373 16.8625L25.4623 19.2375C25.9998 20.1375 26.0998 21.225 25.7373 22.2125C25.3748 23.2 24.5873 23.95 23.5998 24.275C20.8498 25.2 17.9373 25.6625 15.0248 25.6625ZM15.0248 4.58752C11.4123 4.58752 8.46234 7.52502 8.46234 11.15V14.7625C8.46234 15.675 8.08734 17.025 7.62484 17.8125L6.18734 20.2C5.91234 20.6625 5.83734 21.15 5.99984 21.5625C6.14984 21.9875 6.52484 22.3125 7.03734 22.4875C12.2623 24.2375 17.7998 24.2375 23.0248 22.4875C23.4748 22.3375 23.8248 22 23.9873 21.55C24.1498 21.1 24.1123 20.6125 23.8623 20.2L22.4248 17.8125C21.9498 17 21.5873 15.6625 21.5873 14.75V11.15C21.5873 7.52502 18.6498 4.58752 15.0248 4.58752Z" fill="white"/>
<path d="M17.3498 4.92498C17.2623 4.92498 17.1748 4.91248 17.0873 4.88748C16.7248 4.78748 16.3748 4.71248 16.0373 4.66248C14.9748 4.52498 13.9498 4.59998 12.9873 4.88748C12.6373 4.99998 12.2623 4.88748 12.0248 4.62498C11.7873 4.36248 11.7123 3.98748 11.8498 3.64998C12.3623 2.33748 13.6123 1.47498 15.0373 1.47498C16.4623 1.47498 17.7123 2.32498 18.2248 3.64998C18.3498 3.98748 18.2873 4.36248 18.0498 4.62498C17.8623 4.82498 17.5998 4.92498 17.3498 4.92498Z" fill="#4E4C4C"/>
<path d="M15.0249 28.5125C13.7874 28.5125 12.5874 28.0125 11.7124 27.1375C10.8374 26.2625 10.3374 25.0625 10.3374 23.825H12.2124C12.2124 24.5625 12.5124 25.2875 13.0374 25.8125C13.5624 26.3375 14.2874 26.6375 15.0249 26.6375C16.5749 26.6375 17.8374 25.375 17.8374 23.825H19.7124C19.7124 26.4125 17.6124 28.5125 15.0249 28.5125Z" fill="white"/>
</svg>
