<svg width="17" height="19" viewBox="0 0 17 19" fill="none" xmlns="http://www.w3.org/2000/svg">
<path d="M4.50872 2.30976C5.02097 1.41747 5.81758 0.722679 6.7712 0.336437C7.72482 -0.0498049 8.78041 -0.105194 9.76922 0.179125C10.758 0.463443 11.623 1.07105 12.2258 1.90483C12.8286 2.73861 13.1345 3.75041 13.0946 4.77851C13.0547 5.80661 12.6712 6.79164 12.0055 7.57615C11.3399 8.36067 10.4304 8.89937 9.42253 9.10615C8.41465 9.31292 7.36655 9.17584 6.44575 8.7168C5.52495 8.25777 4.78463 7.50329 4.34312 6.57396C4.04814 6.78975 3.692 6.90577 3.32652 6.90516H2.75152V7.19841C2.75152 7.41691 2.83432 7.61586 2.97002 7.76651C3.08598 7.63542 3.23912 7.54277 3.40906 7.50089C3.57899 7.45901 3.75765 7.46989 3.92125 7.53208C4.08484 7.59427 4.22561 7.70482 4.32481 7.84901C4.42401 7.9932 4.47692 8.16419 4.47652 8.33921C4.47643 8.45941 4.45123 8.57826 4.40251 8.68814C4.3538 8.79802 4.28266 8.89651 4.19366 8.97728C4.10465 9.05806 3.99975 9.11934 3.88567 9.1572C3.77159 9.19505 3.65086 9.20865 3.53122 9.19711C3.01328 9.17893 2.52262 8.96039 2.16264 8.58755C1.80267 8.2147 1.6015 7.71667 1.60152 7.19841V2.88361C1.60152 2.73111 1.6621 2.58486 1.76993 2.47702C1.87777 2.36919 2.02402 2.30861 2.17652 2.30861H4.47652L4.50872 2.30976ZM2.75152 5.75516H3.32652C3.47902 5.75516 3.62527 5.69458 3.73311 5.58675C3.84094 5.47891 3.90152 5.33266 3.90152 5.18016V4.75466C3.89814 4.65195 3.89814 4.54917 3.90152 4.44646V3.45861H2.75152V5.75516ZM0.449219 12.6506C0.449219 11.3706 1.48767 10.3506 2.75957 10.3506H14.2492C14.8592 10.3506 15.4442 10.5929 15.8756 11.0242C16.3069 11.4556 16.5492 12.0406 16.5492 12.6506C16.5492 14.5952 15.5913 16.0615 14.094 17.0171C12.6197 17.9567 10.6325 18.4006 8.49922 18.4006C6.36597 18.4006 4.37877 17.9567 2.90447 17.0171C1.40717 16.0626 0.449219 14.5941 0.449219 12.6506Z" fill="#F1CB45"/>
</svg>
