<svg width="22" height="22" viewBox="0 0 22 22" fill="none" xmlns="http://www.w3.org/2000/svg">
<path d="M5.29561 9.43755V16.7425C5.29561 17.9552 5.29561 18.562 5.70719 19.0772C6.11786 19.5924 6.61011 19.6822 7.59369 19.8637C8.50302 20.0305 9.65436 20.1662 11 20.1662C12.3448 20.1662 13.497 20.0305 14.4064 19.8637C15.3899 19.6822 15.8822 19.5924 16.2938 19.0772C16.7044 18.562 16.7044 17.9552 16.7044 16.7425V9.43663C16.7044 8.81055 16.7044 8.49705 16.8254 8.22113C16.9455 7.94613 17.1719 7.74171 17.6239 7.3338L17.7944 7.18071C18.7624 6.30805 19.2464 5.8708 19.25 5.23921C19.2537 4.60671 18.8238 4.21071 17.9658 3.41688C17.8419 3.30187 17.7141 3.19119 17.5826 3.08505C17.1499 2.73855 16.5394 2.35905 16.0719 2.08588C15.8568 1.96117 15.6191 1.88035 15.3725 1.84809C15.126 1.81584 14.8755 1.83279 14.6355 1.89796L14.1864 2.01621C13.8253 2.11324 13.5145 2.34351 13.3164 2.66063C12.2146 4.39955 9.78544 4.39955 8.68361 2.66063C8.48575 2.34376 8.17528 2.11353 7.81461 2.01621L7.36544 1.89796C7.12534 1.83266 6.87467 1.81565 6.62794 1.8479C6.38122 1.88016 6.14335 1.96105 5.92811 2.08588C5.46061 2.35905 4.85011 2.73855 4.41744 3.08505C4.28591 3.19118 4.15811 3.30186 4.03427 3.41688C3.17536 4.21071 2.74636 4.60763 2.75002 5.23921C2.75369 5.87171 3.23769 6.30805 4.20569 7.18071L4.37619 7.3338C4.82811 7.74171 5.05452 7.94613 5.17461 8.22113C5.29561 8.49613 5.29561 8.81055 5.29561 9.43755Z" stroke="#97ADB6" stroke-width="2.5" stroke-linecap="round"/>
</svg>
